<?xml version="1.0" encoding="utf-8"?>
<!-- Generator: Adobe Illustrator 16.0.0, SVG Export Plug-In . SVG Version: 6.00 Build 0)  -->
<!DOCTYPE svg PUBLIC "-//W3C//DTD SVG 1.1//EN" "http://www.w3.org/Graphics/SVG/1.1/DTD/svg11.dtd">
<svg version="1.1" xmlns="http://www.w3.org/2000/svg" xmlns:xlink="http://www.w3.org/1999/xlink" x="0px" y="0px" width="1000px"
	 height="1000px" viewBox="0 0 1000 1000" enable-background="new 0 0 1000 1000" xml:space="preserve">
<g id="Layer_1" display="none">
	<g display="inline">
		<polygon fill="none" stroke="#000000" stroke-miterlimit="10" points="612.5,-146.167 3037.5,-1146.167 3037.5,1163.234 
			612.5,2163.234 		"/>
		<line fill="none" stroke="#000000" stroke-miterlimit="10" x1="614.729" y1="1982.104" x2="3039.599" y2="982.104"/>
		<line fill="none" stroke="#000000" stroke-miterlimit="10" x1="613.402" y1="1936.463" x2="3038.272" y2="936.463"/>
		<line fill="none" stroke="#000000" stroke-miterlimit="10" x1="613.475" y1="1892.555" x2="3038.347" y2="892.555"/>
		<line fill="none" stroke="#000000" stroke-miterlimit="10" x1="614.574" y1="1845.912" x2="3039.445" y2="845.912"/>
		<line fill="none" stroke="#000000" stroke-miterlimit="10" x1="613.248" y1="1800.271" x2="3038.119" y2="800.271"/>
		<line fill="none" stroke="#000000" stroke-miterlimit="10" x1="613.32" y1="1756.363" x2="3038.193" y2="756.363"/>
		<line fill="none" stroke="#000000" stroke-miterlimit="10" x1="614.419" y1="1709.723" x2="3039.29" y2="709.723"/>
		<line fill="none" stroke="#000000" stroke-miterlimit="10" x1="614.493" y1="1665.813" x2="3039.363" y2="665.813"/>
		<line fill="none" stroke="#000000" stroke-miterlimit="10" x1="613.167" y1="1620.172" x2="3038.037" y2="620.172"/>
		<line fill="none" stroke="#000000" stroke-miterlimit="10" x1="614.265" y1="1573.531" x2="3039.137" y2="573.531"/>
		<line fill="none" stroke="#000000" stroke-miterlimit="10" x1="614.339" y1="1529.621" x2="3039.21" y2="529.621"/>
		<line fill="none" stroke="#000000" stroke-miterlimit="10" x1="613.013" y1="1483.98" x2="3037.884" y2="483.98"/>
		<line fill="none" stroke="#000000" stroke-miterlimit="10" x1="613.085" y1="1440.072" x2="3037.958" y2="440.072"/>
		<line fill="none" stroke="#000000" stroke-miterlimit="10" x1="614.184" y1="1393.432" x2="3039.055" y2="393.43"/>
		<line fill="none" stroke="#000000" stroke-miterlimit="10" x1="612.858" y1="1347.789" x2="3037.729" y2="347.79"/>
		<line fill="none" stroke="#000000" stroke-miterlimit="10" x1="612.932" y1="1303.881" x2="3037.802" y2="303.88"/>
		<line fill="none" stroke="#000000" stroke-miterlimit="10" x1="614.03" y1="1257.24" x2="3038.901" y2="257.24"/>
		<line fill="none" stroke="#000000" stroke-miterlimit="10" x1="612.704" y1="1211.6" x2="3037.575" y2="211.598"/>
		<line fill="none" stroke="#000000" stroke-miterlimit="10" x1="612.777" y1="1167.689" x2="3037.649" y2="167.689"/>
		<line fill="none" stroke="#000000" stroke-miterlimit="10" x1="613.875" y1="1121.049" x2="3038.748" y2="121.048"/>
		<line fill="none" stroke="#000000" stroke-miterlimit="10" x1="613.949" y1="1077.141" x2="3038.819" y2="77.139"/>
		<line fill="none" stroke="#000000" stroke-miterlimit="10" x1="612.623" y1="1031.498" x2="3037.493" y2="31.499"/>
		<line fill="none" stroke="#000000" stroke-miterlimit="10" x1="612.695" y1="987.59" x2="3037.567" y2="-12.411"/>
		<line fill="none" stroke="#000000" stroke-miterlimit="10" x1="613.794" y1="940.949" x2="3038.666" y2="-59.051"/>
		<line fill="none" stroke="#000000" stroke-miterlimit="10" x1="612.468" y1="895.309" x2="3037.34" y2="-104.693"/>
		<line fill="none" stroke="#000000" stroke-miterlimit="10" x1="612.542" y1="851.398" x2="3037.414" y2="-148.602"/>
		<line fill="none" stroke="#000000" stroke-miterlimit="10" x1="613.64" y1="804.758" x2="3038.511" y2="-195.243"/>
		<line fill="none" stroke="#000000" stroke-miterlimit="10" x1="612.314" y1="759.117" x2="3037.185" y2="-240.883"/>
		<line fill="none" stroke="#000000" stroke-miterlimit="10" x1="612.388" y1="715.207" x2="3037.258" y2="-284.792"/>
		<line fill="none" stroke="#000000" stroke-miterlimit="10" x1="613.485" y1="668.566" x2="3038.357" y2="-331.434"/>
		<line fill="none" stroke="#000000" stroke-miterlimit="10" x1="613.56" y1="624.658" x2="3038.431" y2="-375.342"/>
		<line fill="none" stroke="#000000" stroke-miterlimit="10" x1="614.657" y1="578.018" x2="3039.53" y2="-421.984"/>
		<line fill="none" stroke="#000000" stroke-miterlimit="10" x1="613.331" y1="532.375" x2="3038.204" y2="-467.625"/>
		<line fill="none" stroke="#000000" stroke-miterlimit="10" x1="613.405" y1="488.466" x2="3038.275" y2="-511.534"/>
		<line fill="none" stroke="#000000" stroke-miterlimit="10" x1="614.503" y1="441.826" x2="3039.374" y2="-558.174"/>
		<line fill="none" stroke="#000000" stroke-miterlimit="10" x1="614.577" y1="397.917" x2="3039.448" y2="-602.083"/>
		<line fill="none" stroke="#000000" stroke-miterlimit="10" x1="613.25" y1="352.275" x2="3038.122" y2="-647.725"/>
		<line fill="none" stroke="#000000" stroke-miterlimit="10" x1="614.35" y1="305.634" x2="3039.222" y2="-694.366"/>
		<line fill="none" stroke="#000000" stroke-miterlimit="10" x1="614.422" y1="261.725" x2="3039.295" y2="-738.275"/>
		<line fill="none" stroke="#000000" stroke-miterlimit="10" x1="613.096" y1="216.084" x2="3037.969" y2="-783.916"/>
		<line fill="none" stroke="#000000" stroke-miterlimit="10" x1="613.17" y1="172.175" x2="3038.04" y2="-827.825"/>
		<line fill="none" stroke="#000000" stroke-miterlimit="10" x1="614.268" y1="125.535" x2="3039.14" y2="-874.465"/>
		<line fill="none" stroke="#000000" stroke-miterlimit="10" x1="612.941" y1="79.893" x2="3037.813" y2="-920.107"/>
		<line fill="none" stroke="#000000" stroke-miterlimit="10" x1="613.015" y1="35.985" x2="3037.887" y2="-964.015"/>
		<line fill="none" stroke="#000000" stroke-miterlimit="10" x1="993.5" y1="-303" x2="993.5" y2="2007"/>
		<line fill="none" stroke="#000000" stroke-miterlimit="10" x1="946.5" y1="-283" x2="946.5" y2="2027"/>
		<line fill="none" stroke="#000000" stroke-miterlimit="10" x1="898.5" y1="-263" x2="898.5" y2="2045"/>
		<line fill="none" stroke="#000000" stroke-miterlimit="10" x1="850.5" y1="-243" x2="850.5" y2="2065"/>
		<line fill="none" stroke="#000000" stroke-miterlimit="10" x1="803.5" y1="-225" x2="803.5" y2="2085"/>
		<line fill="none" stroke="#000000" stroke-miterlimit="10" x1="755.5" y1="-205" x2="755.5" y2="2105"/>
		<line fill="none" stroke="#000000" stroke-miterlimit="10" x1="710.5" y1="-185" x2="710.5" y2="2123"/>
		<line fill="none" stroke="#000000" stroke-miterlimit="10" x1="660.5" y1="-165" x2="660.5" y2="2143"/>
	</g>
</g>
<g id="Layer_2">
</g>
<g id="Layer_4">
</g>
<g id="Layer_5">
</g>
<g id="Layer_6">
</g>
<g id="Layer_3" display="none">
</g>
<g id="Layer_7">
</g>
<g id="Layer_9">
</g>
<g id="Layer_8">
	<linearGradient id="SVGID_1_" gradientUnits="userSpaceOnUse" x1="184.5" y1="986.4189" x2="184.5" y2="70.8442">
		<stop  offset="0" style="stop-color:#29ABE2"/>
		<stop  offset="1" style="stop-color:#00FFFF"/>
	</linearGradient>
	<polygon fill="url(#SVGID_1_)" points="80,70.844 289,188.034 289,986.419 80,869.76 	"/>
	<linearGradient id="SVGID_2_" gradientUnits="userSpaceOnUse" x1="500" y1="586.8457" x2="500" y2="310.9053">
		<stop  offset="0.5484" style="stop-color:#29ABE2"/>
		<stop  offset="1" style="stop-color:#00FFFF"/>
	</linearGradient>
	<polygon fill="url(#SVGID_2_)" points="289,485.3 289,586.846 711,412.886 711,310.905 	"/>
	<linearGradient id="SVGID_3_" gradientUnits="userSpaceOnUse" x1="500.5" y1="943.5273" x2="500.5" y2="58.9771">
		<stop  offset="0" style="stop-color:#29ABE2"/>
		<stop  offset="1" style="stop-color:#00FFFF"/>
	</linearGradient>
	<polygon fill="url(#SVGID_3_)" points="605,58.977 605,856.443 396,943.527 396,144.891 	"/>
	<linearGradient id="SVGID_4_" gradientUnits="userSpaceOnUse" x1="815.5" y1="924.7354" x2="815.4999" y2="14.5669">
		<stop  offset="0" style="stop-color:#29ABE2"/>
		<stop  offset="1" style="stop-color:#00FFFF"/>
	</linearGradient>
	<polygon fill="url(#SVGID_4_)" points="711,14.566 920,126.982 920,924.735 711,813.796 	"/>
	<linearGradient id="SVGID_5_" gradientUnits="userSpaceOnUse" x1="614.1973" y1="161.2168" x2="702.0127" y2="9.116">
		<stop  offset="0.1398" style="stop-color:#29ABE2"/>
		<stop  offset="0.5753" style="stop-color:#00FFFF"/>
	</linearGradient>
	<polygon fill="url(#SVGID_5_)" points="711,14.305 605,58.977 605,155.906 711,111.721 	"/>
</g>
</svg>
