<?xml version="1.0" encoding="utf-8"?>
<!-- Generator: Adobe Illustrator 16.0.0, SVG Export Plug-In . SVG Version: 6.00 Build 0)  -->
<!DOCTYPE svg PUBLIC "-//W3C//DTD SVG 1.1//EN" "http://www.w3.org/Graphics/SVG/1.1/DTD/svg11.dtd">
<svg version="1.1" id="Layer_1" xmlns="http://www.w3.org/2000/svg" xmlns:xlink="http://www.w3.org/1999/xlink" x="0px" y="0px"
	 width="512px" height="512px" viewBox="0 0 512 512" enable-background="new 0 0 512 512" xml:space="preserve">
<linearGradient id="SVGID_1_" gradientUnits="userSpaceOnUse" x1="-436.4463" y1="297.6953" x2="10.9537" y2="652.8416" gradientTransform="matrix(1 0 0 1 488 -203)">
	<stop  offset="0" style="stop-color:#9013FE"/>
	<stop  offset="1" style="stop-color:#6610F2"/>
</linearGradient>
<path fill="url(#SVGID_1_)" d="M56.481,106.32C55.515,78.58,77.128,53,106.342,53h299.354c29.214,0,50.825,25.58,49.859,53.32
	c-0.928,26.647,0.277,61.165,8.964,89.31c8.717,28.232,23.411,46.077,47.48,48.37v26c-24.069,2.293-38.765,20.139-47.48,48.37
	c-8.687,28.146-9.892,62.663-8.964,89.311C456.521,435.42,434.909,461,405.695,461H106.342c-29.214,0-50.827-25.58-49.86-53.319
	c0.927-26.646-0.278-61.165-8.966-89.311C38.802,290.139,24.07,272.293,0,270v-26c24.069-2.293,38.802-20.138,47.516-48.37
	C56.204,167.485,57.409,132.967,56.481,106.32z"/>
<linearGradient id="SVGID_2_" gradientUnits="userSpaceOnUse" x1="-298.8525" y1="368.3184" x2="-198.8461" y2="537.451" gradientTransform="matrix(1 0 0 1 488 -203)">
	<stop  offset="0" style="stop-color:#FFFFFF"/>
	<stop  offset="1" style="stop-color:#F1E5FC"/>
</linearGradient>
<path fill="url(#SVGID_2_)" stroke="#FFFFFF" d="M267.104,365.457c47.297,0,75.797-23.158,75.797-61.355
	c0-28.873-20.336-49.774-50.53-53.084v-1.203c22.185-3.608,39.594-24.21,39.594-47.218c0-32.783-25.882-54.138-65.321-54.138
	h-88.741v217L267.104,365.457L267.104,365.457z M212.411,175.977h45.911c24.958,0,39.131,11.128,39.131,31.279
	c0,21.505-16.484,33.535-46.372,33.535h-38.67V175.977z M212.411,337.938v-71.431h45.603c32.66,0,49.607,12.03,49.607,35.49
	c0,23.459-16.484,35.94-47.605,35.94H212.411L212.411,337.938z"/>
</svg>
