<?xml version="1.0" encoding="utf-8"?>
<!-- Generator: Adobe Illustrator 16.0.0, SVG Export Plug-In . SVG Version: 6.00 Build 0)  -->
<!DOCTYPE svg PUBLIC "-//W3C//DTD SVG 1.1//EN" "http://www.w3.org/Graphics/SVG/1.1/DTD/svg11.dtd">
<svg version="1.1" id="Layer_1" xmlns="http://www.w3.org/2000/svg" xmlns:xlink="http://www.w3.org/1999/xlink" x="0px" y="0px"
	 width="250px" height="250px" viewBox="0 -68 250 250" enable-background="new 0 -68 250 250" xml:space="preserve">
<g>
	<path d="M16.254,27.631v7.998h0.359c0.715-1.113,1.65-2.248,2.805-3.402c1.153-1.154,2.567-2.188,4.239-3.105
		c1.671-0.912,3.561-1.67,5.671-2.268c2.107-0.596,4.477-0.896,7.103-0.896c4.06,0,7.8,0.777,11.223,2.328
		c3.422,1.555,6.368,3.684,8.836,6.389c2.466,2.707,4.376,5.891,5.73,9.551c1.353,3.662,2.03,7.602,2.03,11.82
		s-0.657,8.179-1.971,11.879c-1.312,3.701-3.185,6.925-5.611,9.67c-2.429,2.746-5.372,4.938-8.835,6.566
		c-3.463,1.631-7.384,2.446-11.76,2.446c-4.06,0-7.781-0.836-11.163-2.506c-3.385-1.672-5.99-3.938-7.82-6.807h-0.238v36.295H2.525
		V27.631H16.254z M49.684,56.045c0-2.229-0.339-4.438-1.015-6.627c-0.678-2.188-1.692-4.158-3.045-5.91
		c-1.354-1.748-3.064-3.162-5.134-4.238c-2.07-1.074-4.497-1.611-7.282-1.611c-2.627,0-4.976,0.557-7.044,1.672
		c-2.07,1.115-3.842,2.549-5.313,4.297c-1.474,1.752-2.587,3.742-3.343,5.971c-0.758,2.229-1.134,4.459-1.134,6.686
		c0,2.229,0.376,4.438,1.134,6.625c0.756,2.191,1.869,4.16,3.343,5.912c1.472,1.75,3.243,3.164,5.313,4.236
		c2.068,1.075,4.417,1.61,7.044,1.61c2.785,0,5.212-0.555,7.282-1.67c2.069-1.115,3.78-2.547,5.134-4.299
		c1.353-1.75,2.367-3.74,3.045-5.97C49.345,60.502,49.684,58.273,49.684,56.045z"/>
	<path d="M189.333,24.893v63.505c0,3.422-0.278,6.666-0.836,9.73c-0.56,3.064-1.611,5.73-3.164,8
		c-1.551,2.27-3.662,4.078-6.328,5.432c-2.668,1.354-6.147,2.029-10.446,2.029c-1.193,0-2.388-0.08-3.582-0.238
		c-1.193-0.16-2.148-0.319-2.865-0.479l1.195-12.178c0.637,0.16,1.312,0.279,2.028,0.359c0.717,0.077,1.353,0.118,1.91,0.118
		c1.67,0,3.022-0.317,4.06-0.955c1.032-0.639,1.829-1.514,2.389-2.627c0.555-1.114,0.914-2.407,1.074-3.881
		c0.157-1.474,0.237-3.043,0.237-4.715V24.893H189.333z"/>
	<path d="M238.163,42.912c-1.274-1.672-3.024-3.123-5.254-4.357c-2.229-1.234-4.656-1.852-7.283-1.852
		c-2.31,0-4.416,0.479-6.326,1.434c-1.911,0.953-2.864,2.547-2.864,4.775s1.053,3.803,3.162,4.715
		c2.108,0.916,5.194,1.852,9.254,2.807c2.147,0.479,4.315,1.115,6.506,1.91c2.189,0.795,4.18,1.85,5.971,3.164
		c1.789,1.312,3.242,2.945,4.357,4.895c1.112,1.951,1.672,4.318,1.672,7.104c0,3.504-0.658,6.47-1.972,8.896
		c-1.312,2.428-3.063,4.397-5.254,5.91c-2.19,1.512-4.735,2.606-7.641,3.283c-2.906,0.676-5.908,1.014-9.015,1.014
		c-4.459,0-8.795-0.816-13.014-2.447c-4.219-1.629-7.721-3.959-10.506-6.982l9.432-8.836c1.592,2.07,3.66,3.781,6.209,5.133
		c2.547,1.354,5.371,2.029,8.478,2.029c1.032,0,2.088-0.117,3.163-0.357c1.074-0.237,2.068-0.614,2.984-1.133
		c0.914-0.518,1.65-1.213,2.209-2.09c0.555-0.877,0.834-1.949,0.834-3.225c0-2.389-1.094-4.098-3.281-5.133
		c-2.19-1.035-5.475-2.07-9.85-3.104c-2.15-0.479-4.24-1.094-6.27-1.853c-2.029-0.756-3.84-1.75-5.432-2.983
		c-1.595-1.234-2.865-2.764-3.82-4.598c-0.955-1.83-1.435-4.098-1.435-6.805c0-3.184,0.656-5.928,1.972-8.236
		c1.312-2.312,3.045-4.197,5.192-5.674c2.147-1.471,4.576-2.566,7.283-3.281c2.705-0.717,5.492-1.076,8.356-1.076
		c4.138,0,8.179,0.717,12.117,2.148c3.939,1.434,7.063,3.625,9.373,6.568L238.163,42.912z"/>
	<g>
		<path d="M153.559,72.816l8.533-2.576l1.676,5.156l-8.498,2.897l5.275,7.479L156.098,89l-5.553-7.348l-5.408,7.154l-4.318-3.289
			l5.274-7.224l-8.563-3.09l1.678-5.16l8.6,2.771V63.92h5.754v8.896H153.559z"/>
	</g>
	<g>
		<path d="M124.086,45.836c-1.473-3.301-3.521-6.088-6.148-8.357c-2.626-2.268-5.711-4-9.252-5.193
			c-3.543-1.193-7.384-1.791-11.521-1.791c-1.513,0-3.204,0.082-5.074,0.238c-1.871,0.162-3.482,0.439-4.835,0.838l0.835-18.268
			h34.504V0.41H74.481l-1.433,46.201c1.271-0.635,2.725-1.232,4.357-1.791c1.631-0.555,3.302-1.053,5.014-1.49
			c1.711-0.438,3.463-0.775,5.254-1.016c1.791-0.238,3.481-0.357,5.074-0.357c2.307,0,4.576,0.258,6.805,0.775
			c2.228,0.518,4.238,1.434,6.029,2.746s3.242,3.045,4.358,5.193c1.113,2.148,1.671,4.855,1.671,8.119
			c0,2.547-0.418,4.836-1.254,6.865c-0.835,2.026-1.97,3.721-3.401,5.071c-1.434,1.355-3.104,2.39-5.016,3.104
			c-1.91,0.719-3.939,1.076-6.089,1.076c-3.819,0-7.124-1.017-9.909-3.046c-2.787-2.028-4.775-4.715-5.97-8.059l-0.159,0.059
			l-10.368,9.716c2.097,3.42,4.8,6.28,8.14,8.553c4.854,3.302,10.823,4.955,17.909,4.955c4.218,0,8.197-0.678,11.938-2.028
			c3.74-1.353,7.004-3.304,9.79-5.853c2.785-2.545,4.994-5.67,6.627-9.371c1.63-3.701,2.446-7.897,2.446-12.596
			C126.295,52.939,125.559,49.141,124.086,45.836z"/>
	</g>
</g>
</svg>
