<?xml version="1.0" encoding="utf-8"?>
<!-- Generator: Adobe Illustrator 16.0.0, SVG Export Plug-In . SVG Version: 6.00 Build 0)  -->
<!DOCTYPE svg PUBLIC "-//W3C//DTD SVG 1.1//EN" "http://www.w3.org/Graphics/SVG/1.1/DTD/svg11.dtd">
<svg version="1.1"
	 id="svg2" xmlns:dc="http://purl.org/dc/elements/1.1/" xmlns:cc="http://creativecommons.org/ns#" xmlns:rdf="http://www.w3.org/1999/02/22-rdf-syntax-ns#" xmlns:svg="http://www.w3.org/2000/svg" xmlns:sodipodi="http://sodipodi.sourceforge.net/DTD/sodipodi-0.dtd" xmlns:inkscape="http://www.inkscape.org/namespaces/inkscape" sodipodi:docname="TheQtCompany_logo_2.svg" inkscape:version="0.91 r13725"
	 xmlns="http://www.w3.org/2000/svg" xmlns:xlink="http://www.w3.org/1999/xlink" x="0px" y="0px" width="462px" height="462px"
	 viewBox="0 -61.5 462 462" enable-background="new 0 -61.5 462 462" xml:space="preserve">
<sodipodi:namedview  inkscape:cy="174.65092" inkscape:cx="270.58047" inkscape:zoom="1.1138643" showgrid="false" guidetolerance="10" gridtolerance="10" objecttolerance="10" bordercolor="#666666" pagecolor="#ffffff" borderopacity="1" id="namedview16" inkscape:current-layer="svg2" inkscape:window-maximized="1" inkscape:window-y="-8" inkscape:window-x="-8" inkscape:pageopacity="0" inkscape:window-height="801" inkscape:pageshadow="2" inkscape:window-width="1536">
	</sodipodi:namedview>
<path id="path6" fill="#41CD52" d="M63.5,0H462v274.79c-21.4,21.47-42.87,42.87-64.39,64.21H0V63.39C21.08,42.18,42.34,21.13,63.5,0
	z"/>
<path id="path8" fill="#FFFFFF" d="M122.37,71.33C137.5,61.32,156.21,58.79,174,58.95c16.94,0.21,34.72,3.18,48.76,13.29
	c10.2,7.17,16.83,18.24,21.25,29.69c7.15,18.8,9.25,39.1,9.49,59.08c0.029,20.12-0.88,40.68-7.54,59.85
	c-4.46,13.041-12.95,24.621-24.15,32.66c8.06,13.061,16.28,26.021,24.34,39.08c-10.131,4.67-20.23,9.371-30.371,14.021
	c-8.63-14.24-17.22-28.511-25.88-42.729c-11.71,1.92-23.69,1.77-35.46,0.469c-14.1-1.689-28.47-5.989-39.35-15.479
	c-8.36-7.239-13.61-17.37-17.2-27.67c-5.88-17.42-7.46-35.96-7.73-54.24c-0.14-19.76,1.12-39.83,7.08-58.79
	C101.85,93.92,109.48,79.69,122.37,71.33z"/>
<path id="path10" fill="#FFFFFF" d="M294.13,70.69c10.601-0.01,21.2-0.01,31.8,0c0.03,14.02-0.01,28.03,0.021,42.05
	c13.55,0.02,27.1,0,40.649,0.01c-0.229,9.1-0.479,18.2-0.74,27.3c-13.539,0.03-27.069-0.01-40.609,0.02
	c0.03,22.98-0.07,45.96,0.05,68.94c0.261,6.29,0.12,12.93,2.89,18.74c2.021,4.48,7.461,5.63,11.891,5.779
	c8.35-0.029,16.689-0.52,25.04-0.67c0.51,8.361,1,16.73,1.479,25.091c-16.609,2.79-34.039,6.13-50.539,0.909
	c-6.951-2.06-13.431-6.67-16.25-13.539c-5.051-11.69-5.461-24.7-5.681-37.25c-0.021-22.67,0-45.33-0.01-68
	c-7.39-0.02-14.78,0.01-22.17-0.02c-0.021-9.09-0.021-18.19,0-27.29c7.39-0.03,14.77,0.01,22.159-0.02
	C294.141,98.72,294.1,84.71,294.13,70.69z"/>
<path id="path12" fill="#41CD52" d="M160.51,87.7c10.29-1.34,21.09-0.98,30.83,2.91c7.89,3.12,14.59,9.23,18.13,16.97
	c5.43,11.73,7.51,24.68,8.56,37.47c1.14,17.02,0.98,34.2-1.37,51.12c-1.65,10.07-4,20.68-10.82,28.62
	c-6.92,7.97-17.59,11.39-27.83,12.19c-10.8,0.789-22.19,0-31.94-5.11c-5.69-3.03-10.52-7.78-13.34-13.601
	c-3.42-6.97-5.3-14.58-6.62-22.199c-3.98-24.16-4.94-49.16,0.5-73.18c2.24-9.06,5.5-18.36,12.12-25.19
	C144.49,91.85,152.51,88.83,160.51,87.7z"/>
</svg>
