<?xml version="1.0" encoding="utf-8"?>
<!-- Generator: Adobe Illustrator 16.0.0, SVG Export Plug-In . SVG Version: 6.00 Build 0)  -->
<!DOCTYPE svg PUBLIC "-//W3C//DTD SVG 1.1//EN" "http://www.w3.org/Graphics/SVG/1.1/DTD/svg11.dtd">
<svg version="1.1" id="Layer_1" xmlns="http://www.w3.org/2000/svg" xmlns:xlink="http://www.w3.org/1999/xlink" x="0px" y="0px"
	 width="800px" height="800px" viewBox="240 0 800 800" enable-background="new 240 0 800 800" xml:space="preserve">
<title>logo_vb</title>
<circle fill="#004E8C" cx="640" cy="400" r="400"/>
<path opacity="0.1" fill="#FFFFFF" enable-background="new    " d="M362.75,112.5c-164.931,146.972-179.49,399.819-32.518,564.75
	c146.971,164.931,399.819,179.49,564.75,32.519c11.454-10.207,22.312-21.064,32.519-32.519L362.75,112.5z"/>
<path fill="#FFFFFF" d="M656.125,242.5L540,557.5h-41.125l-114.25-315h41.125l87.5,250c3.018,9.064,5.152,18.399,6.375,27.875h0.875
	c1.31-9.723,3.656-19.277,7-28.5l89-250L656.125,242.5z"/>
<path fill="#FFFFFF" d="M701.5,557.5v-315h89.625c23.275-1.246,46.231,5.845,64.75,20c15.698,12.676,24.576,31.956,24,52.125
	c0.244,16.707-4.979,33.036-14.875,46.5c-9.986,13.407-24.005,23.264-40,28.125v0.875c19.346,1.56,37.468,10.087,51,24
	c13.084,14.422,19.955,33.42,19.125,52.875c0.829,25.113-9.85,49.232-29,65.5c-20.457,17.067-46.501,25.972-73.125,25H701.5z
	 M739,275.75V377.5h37.5c17.074,0.803,33.874-4.517,47.375-15c11.854-10.327,18.268-25.554,17.375-41.25
	c0-30.583-20.125-45.875-60.375-45.875L739,275.75z M739,410.625V524h50c17.972,1.042,35.719-4.415,50-15.375
	c12.071-10.581,18.653-26.092,17.875-42.125c0-37.167-25.333-55.75-76-55.75L739,410.625z"/>
</svg>
