<?xml version="1.0" encoding="utf-8"?>
<!-- Generator: Adobe Illustrator 16.0.0, SVG Export Plug-In . SVG Version: 6.00 Build 0)  -->
<!DOCTYPE svg PUBLIC "-//W3C//DTD SVG 1.1//EN" "http://www.w3.org/Graphics/SVG/1.1/DTD/svg11.dtd">
<svg version="1.1" id="Layer_1" xmlns="http://www.w3.org/2000/svg" xmlns:xlink="http://www.w3.org/1999/xlink" x="0px" y="0px"
	 width="306px" height="344.35px" viewBox="0 0 306 344.35" enable-background="new 0 0 306 344.35" xml:space="preserve">
<path fill="#212121" d="M300.437,87.051L153,172.175l147.437,85.123c2.372-4.113,3.846-8.75,3.846-12.913V99.965
	C304.282,95.802,302.809,91.164,300.437,87.051z M253.855,177.781h-11.203v11.202l-11.213,0.001v-11.203h-11.203v-11.213h11.203
	v-11.203h11.213v11.203h11.203V177.781z M295.878,177.781h-11.203v11.202h-11.212v-11.202H262.26v-11.213h11.203v-11.203h11.212
	v11.203h11.203V177.781z"/>
<path d="M196.684,197.398c-9.007,15.544-25.748,25.204-43.684,25.204c-18.628,0-34.934-10.154-43.654-25.224L153,172.175
	L196.684,197.398z"/>
<path d="M300.437,257.298c-2.373,4.113-5.656,7.703-9.255,9.78l-125.08,72.219c-7.209,4.164-18.995,4.164-26.203,0l-125.08-72.219
	c-3.6-2.077-6.882-5.666-9.255-9.78l60.107-34.705c17.472,30.128,50.071,50.437,87.329,50.437c35.883,0,69.353-19.311,87.339-50.397
	l-25.125-14.535L300.437,257.298z"/>
<path fill="#353535" d="M196.684,146.951L153,172.175l-43.654,25.204c-4.311-7.416-6.773-16.028-6.773-25.204
	c0-27.805,22.623-50.428,50.428-50.428C170.936,121.747,187.677,131.408,196.684,146.951z"/>
<path fill="#353535" d="M215.214,136.252l25.125-14.535C222.353,90.63,188.883,71.32,153,71.32
	c-55.609,0-100.855,45.246-100.855,100.855c0,18.352,4.924,35.576,13.526,50.418L5.564,257.298
	c-2.373-4.113-3.847-8.75-3.847-12.912V99.965c0-8.326,5.893-18.54,13.102-22.692l125.08-72.22c7.208-4.163,18.994-4.163,26.203,0
	l125.08,72.22c3.599,2.077,6.882,5.666,9.255,9.779L215.214,136.252z"/>
</svg>
