<?xml version="1.0" encoding="utf-8"?>
<!-- Generator: Adobe Illustrator 16.0.0, SVG Export Plug-In . SVG Version: 6.00 Build 0)  -->
<!DOCTYPE svg PUBLIC "-//W3C//DTD SVG 1.1//EN" "http://www.w3.org/Graphics/SVG/1.1/DTD/svg11.dtd">
<svg version="1.1" id="Layer_1" xmlns="http://www.w3.org/2000/svg" xmlns:xlink="http://www.w3.org/1999/xlink" x="0px" y="0px"
	 width="456px" height="456px" viewBox="0 0 456 456" enable-background="new 0 0 456 456" xml:space="preserve">
<path d="M6.5,6.5v443h443V6.5H6.5z M93.526,286.396c-2.196,2.089-4.887,3.129-8.073,3.129c-3.128,0-5.79-1.04-7.986-3.129
	c-2.195-2.137-3.284-4.682-3.284-7.627c0-3.001,1.088-5.565,3.284-7.703c2.196-2.147,4.857-3.217,7.986-3.217
	c3.187,0,5.877,1.069,8.073,3.217c2.244,2.138,3.361,4.702,3.361,7.703C96.888,281.714,95.771,284.259,93.526,286.396z
	 M210.678,287.766h-20.362l-53.646-84.625c-1.351-2.147-2.478-4.362-3.362-6.665h-0.476c0.417,2.458,0.631,7.733,0.631,15.816
	v75.474h-18.012V172.625h21.693l51.839,82.615c2.196,3.43,3.604,5.781,4.226,7.073h0.311c-0.515-3.051-0.777-8.22-0.777-15.495
	v-74.193h17.934V287.766z M298.385,287.766h-63.04V172.625h60.534v16.214h-41.891v32.603h38.597v16.136h-38.597v34.042h44.397
	L298.385,287.766L298.385,287.766z M387.976,188.839h-32.264v98.926h-18.643v-98.926h-32.185v-16.214h83.091V188.839z"/>
</svg>
