<?xml version="1.0" encoding="utf-8"?>
<!-- Generator: Adobe Illustrator 16.0.0, SVG Export Plug-In . SVG Version: 6.00 Build 0)  -->
<!DOCTYPE svg PUBLIC "-//W3C//DTD SVG 1.1//EN" "http://www.w3.org/Graphics/SVG/1.1/DTD/svg11.dtd">
<svg version="1.1" id="Layer_1" xmlns="http://www.w3.org/2000/svg" xmlns:xlink="http://www.w3.org/1999/xlink" x="0px" y="0px"
	 width="256px" height="256px" viewBox="0 0 256 256" enable-background="new 0 0 256 256" xml:space="preserve">
<path d="M128,0C57.31,0,0,57.31,0,128c0,70.69,57.31,128,128,128c70.69,0,128-57.31,128-128C256,57.31,198.69,0,128,0z
	 M173.77,70.09c16.91,0.22,29.631,5.73,35.65,16.15c8.17,14.17,2.23,34.4-14.8,54.51c-0.01,0.02-0.03,0.03-0.04,0.05
	c-0.96,1.11-2.65,1.23-3.76,0.271c-1.11-0.971-1.24-2.65-0.271-3.761c15.74-18.6,21.04-36.64,14.25-48.399
	c-4.93-8.54-15.89-13.28-31.1-13.48c-1.44-0.04-2.59-1.22-2.59-2.66C171.1,71.29,172.3,70.1,173.77,70.09z M127.62,28.92
	c7.05,0,12.76,5.71,12.76,12.76c0,0.18,0,0.37-0.02,0.55c21.13,10.92,35.819,48.19,35.819,91.24c0,17.7-2.479,34.69-7.09,49.42
	c0,0.021-0.01,0.051-0.02,0.07c-0.46,1.4-1.971,2.16-3.37,1.7c-1.4-0.46-2.16-1.96-1.7-3.36c4.45-14.2,6.84-30.66,6.84-47.83
	c0-40.54-13.47-75.43-31.88-85.94c-2.12,4.11-6.4,6.91-11.34,6.91c-7.05,0-12.77-5.71-12.77-12.76
	C114.85,34.63,120.57,28.92,127.62,28.92z M45.74,86.1c8.2-14.19,28.76-19.15,54.76-14.41c1.42,0.28,2.35,1.63,2.11,3.05
	c-0.24,1.46-1.61,2.44-3.06,2.2c-24.04-4.38-42.38,0.04-49.19,11.83c-5.01,8.69-3.51,20.81,4.25,34.33c0.02,0.03,0.04,0.06,0.05,0.1
	c0.71,1.29,0.23,2.91-1.06,3.62c-1.3,0.7-2.91,0.22-3.62-1.07C41.37,110.74,39.62,96.7,45.74,86.1z M48.5,193.04
	c-7.05,0-12.77-5.71-12.77-12.76c0-4.8,2.65-8.98,6.57-11.15c-1.93-23.86,23.15-55.84,61.04-77.72
	c15.74-9.08,32.12-15.53,47.521-18.83c0.029-0.01,0.06-0.01,0.08-0.02c1.449-0.29,2.85,0.66,3.14,2.1c0.28,1.45-0.66,2.85-2.1,3.13
	c-14.841,3.18-30.71,9.43-45.98,18.24c-35.69,20.6-59.29,50.31-58.44,71.53c0.31-0.029,0.62-0.04,0.94-0.04
	c7.05,0,12.76,5.711,12.76,12.761S55.55,193.04,48.5,193.04z M129.57,142.49c-4.99,1.08-9.9-2.09-10.98-7.07
	c-1.07-4.99,2.09-9.9,7.08-10.98c4.98-1.08,9.89,2.09,10.97,7.08C137.72,136.5,134.55,141.41,129.57,142.49z M159.23,205.44
	c-8.62,14.34-19.671,22.479-31.61,22.479c-16.38,0-30.95-15.31-39.85-40.17c-0.01-0.03-0.02-0.07-0.04-0.1
	c-0.46-1.4,0.29-2.91,1.69-3.381c1.39-0.46,2.9,0.29,3.37,1.69c8.23,22.97,21.22,36.63,34.83,36.63c9.78,0,19.3-7.01,27.04-19.899
	c0.01-0.021,0.03-0.04,0.04-0.061c0.78-1.25,2.42-1.64,3.67-0.86C159.62,202.55,160.01,204.19,159.23,205.44z M206.55,193.04
	c-2.78,0-5.35-0.89-7.439-2.41c-20.36,12-59.25,5.89-95.851-15.25C87.68,166.39,74.02,155.55,63.5,144c0-0.01-0.01-0.01-0.01-0.02
	c-0.99-1.091-0.9-2.78,0.19-3.771c1.09-0.979,2.78-0.9,3.77,0.2c10.13,11.13,23.36,21.63,38.48,30.359
	c34.54,19.94,70.91,25.87,89.53,15.811c-1.06-1.86-1.67-4.01-1.67-6.3c0-7.05,5.71-12.761,12.76-12.761s12.771,5.711,12.771,12.761
	S213.6,193.04,206.55,193.04z"/>
</svg>
