<?xml version="1.0" encoding="utf-8"?>
<!-- Generator: Adobe Illustrator 16.0.0, SVG Export Plug-In . SVG Version: 6.00 Build 0)  -->
<!DOCTYPE svg PUBLIC "-//W3C//DTD SVG 1.1//EN" "http://www.w3.org/Graphics/SVG/1.1/DTD/svg11.dtd">
<svg version="1.1" id="Layer_1" xmlns="http://www.w3.org/2000/svg" xmlns:xlink="http://www.w3.org/1999/xlink" x="0px" y="0px"
	 width="800px" height="800px" viewBox="0 0 800 800" enable-background="new 0 0 800 800" xml:space="preserve">
<path d="M6.61,6.61v786.78h786.78V6.61H6.61z M322.255,737.191c-80.196,0-113.544-47.656-118.95-68.596l60.378-38.315
	c4.721,14.264,23.109,40.541,49.781,40.541c26.684,0,40.328-27.39,40.328-40.541V371.901h74.262V630.28
	C429.258,665.92,409.487,737.191,322.255,737.191z M625.222,737.191c-107.632,0-136.168-64.617-140.924-76.205l57.93-38.34
	c4.541,14.264,33.292,48.141,69.597,48.141c36.314,0,53.175-19.827,53.175-32.979c0-35.832-37.078-48.464-54.894-54.536
	c-2.9-0.989-5.295-1.807-6.926-2.516c-0.843-0.36-2.112-0.856-3.729-1.475c-19.805-7.563-92.887-35.482-92.887-116.421
	c0-89.142,86.018-99.392,105.485-99.392c12.724,0,73.912,1.561,104.395,58.839l-56.198,39.227
	c-12.32-24.964-32.787-33.213-45.387-33.213c-31.133,0-37.619,22.816-37.619,33.213c0,29.134,33.82,42.205,62.368,53.232
	c7.475,2.886,14.589,5.63,20.637,8.497c31.121,14.699,76.946,38.775,76.946,114.542C737.191,675.755,705.36,737.191,625.222,737.191
	z"/>
</svg>
