<?xml version="1.0" encoding="utf-8"?>
<!-- Generator: Adobe Illustrator 16.0.0, SVG Export Plug-In . SVG Version: 6.00 Build 0)  -->
<!DOCTYPE svg PUBLIC "-//W3C//DTD SVG 1.1//EN" "http://www.w3.org/Graphics/SVG/1.1/DTD/svg11.dtd">
<svg version="1.1" id="Layer_1" xmlns="http://www.w3.org/2000/svg" xmlns:xlink="http://www.w3.org/1999/xlink" x="0px" y="0px"
	 width="64px" height="64px" viewBox="0 0 64 64" enable-background="new 0 0 64 64" xml:space="preserve">
<path d="M23.244,49.48c0,0-2.46,1.496,1.71,1.924c5.02,0.64,7.694,0.533,13.25-0.534c1.116,0.684,2.298,1.257,3.526,1.71
	c-12.5,5.344-28.32-0.32-18.488-3.1H23.244z M21.644,42.534c0,0-2.672,2.03,1.496,2.46c5.45,0.533,9.724,0.64,17.1-0.854
	c0.717,0.727,1.596,1.275,2.564,1.602c-15.069,4.488-31.953,0.428-21.161-3.206V42.534z M51.139,54.714c0,0,1.815,1.496-2.031,2.672
	c-7.159,2.14-30.027,2.78-36.439,0c-2.244-0.96,2.03-2.35,3.4-2.563c1.39-0.32,2.14-0.32,2.14-0.32
	c-2.46-1.71-16.35,3.525-7.052,5.02c25.539,4.168,46.592-1.815,39.966-4.808H51.139z M24.4,35.266c0,0-11.648,2.78-4.168,3.74
	c3.206,0.428,9.51,0.32,15.388-0.105c4.808-0.428,9.62-1.28,9.62-1.28s-1.711,0.748-2.887,1.496
	c-11.859,3.1-34.624,1.71-28.104-1.496c5.556-2.672,10.152-2.351,10.152-2.351L24.4,35.266z M45.24,46.914
	c11.968-6.2,6.412-12.18,2.564-11.434c-0.961,0.213-1.391,0.428-1.391,0.428s0.32-0.641,1.068-0.854
	c7.588-2.673,13.572,8.014-2.461,12.18c0,0,0.106-0.106,0.215-0.32H45.24z M25.58,63.798c11.54,0.748,29.174-0.428,29.6-5.88
	c0,0-0.854,2.141-9.51,3.74c-9.832,1.816-22.014,1.6-29.174,0.428c0,0,1.496,1.28,9.084,1.71V63.798z"/>
<path d="M37.992,0.002c0,0,6.626,6.732-6.304,16.884c-10.366,8.229-2.35,12.93,0,18.274c-6.092-5.45-10.472-10.26-7.48-14.746
	C28.588,13.786,40.664,10.6,37.992,0.002z M34.592,30.672c3.1,3.526-0.854,6.732-0.854,6.732s7.908-4.061,4.273-9.084
	c-3.312-4.808-5.88-7.16,8.014-15.174C46.025,13.146,24.12,18.596,34.592,30.672z"/>
</svg>
