<?xml version="1.0" encoding="utf-8"?>
<!-- Generator: Adobe Illustrator 16.0.0, SVG Export Plug-In . SVG Version: 6.00 Build 0)  -->
<!DOCTYPE svg PUBLIC "-//W3C//DTD SVG 1.1//EN" "http://www.w3.org/Graphics/SVG/1.1/DTD/svg11.dtd">
<svg version="1.1" id="Layer_1" xmlns="http://www.w3.org/2000/svg" xmlns:xlink="http://www.w3.org/1999/xlink" x="0px" y="0px"
	 width="800px" height="800px" viewBox="0 0 800 800" enable-background="new 0 0 800 800" xml:space="preserve">
<g>
	<path d="M432.998,14.407c-19.977-11.234-46.02-11.184-66.013,0C266.854,69.667,166.719,124.943,66.568,180.178
		c-19.489,10.252-32.633,31.18-32.423,52.901v333.888c-0.141,22.145,13.681,43.274,33.671,53.387
		c28.767,15.304,56.715,32.162,86.002,46.446c33.83,16.624,76.154,20.299,110.397,2.964c27.796-14.367,40.143-46.323,40.106-75.69
		c0.225-110.191,0.037-220.383,0.087-330.577c0.661-4.897-3.017-10.131-8.358-10.013c-12.797-0.203-25.61-0.118-38.407-0.034
		c-4.835-0.456-9.554,3.56-9.189,8.42c-0.171,109.481,0.034,218.996-0.104,328.495c0.278,15.146-9.955,29.702-24.551,34.818
		c-33.714,11.816-129.94-50.663-129.94-50.663c-3.531-1.636-5.774-5.466-5.428-9.271c0-110.156,0.017-220.316,0-330.456
		c-0.485-4.44,2.251-8.44,6.33-10.253c99.803-54.935,199.555-110.006,299.357-164.974c3.467-2.313,8.3-2.306,11.758,0.017
		c99.803,54.951,199.573,109.972,299.392,164.909c4.093,1.811,6.713,5.877,6.296,10.301c-0.017,110.14,0.034,220.3-0.034,330.442
		c0.296,3.897-1.719,7.674-5.357,9.386c-98.872,54.637-198.869,107.511-296.846,163.735c-4.274,2.45-9.118,5.229-13.908,2.527
		c-25.765-14.252-51.217-29.058-76.898-43.448c-2.792-1.741-6.346-2.489-9.259-0.539c-11.513,6.067-22.343,10.98-35.564,16.215
		c-18.569,7.352-15.603,10.356,1.145,20.114c30.031,16.996,60.113,33.924,90.145,50.936c19.771,12.338,46.334,13.216,66.741,1.815
		c100.148-55.191,200.267-110.447,300.436-165.638c19.937-10.168,33.827-31.213,33.687-53.376V233.079
		c0.195-21.281-12.446-41.835-31.347-52.239C634.024,125.311,533.496,69.902,432.998,14.407z"/>
	<path d="M584.108,265.088c-39.308-21.028-86.07-22.148-129.751-19.398c-31.557,3.118-64.745,11.826-87.735,34.447
		c-23.581,22.74-28.714,59.46-17.513,89.146c8.026,20.977,28.23,34.618,49.123,41.833c26.914,9.502,55.18,12.439,83.454,15.378
		c25.791,2.679,51.59,5.361,76.378,13.024c10.125,3.354,21.918,8.487,25.02,19.506c2.864,13.047-0.276,28.213-10.869,37.278
		c-33.647,26.631-127.246,22.551-160.49,1.59c-13.442-8.931-19.233-24.737-21.589-39.803c-0.262-4.694-4.041-9-9.138-8.643
		c-12.763-0.152-25.526-0.118-38.289-0.017c-4.452-0.375-9.082,2.794-9.327,7.339c-2.623,68.998,60.747,99.077,120.198,105.699
		c33.965,3.236,68.678,3.051,102.125-4.238c25.143-5.725,50.354-16.267,67.661-35.632c21.344-23.536,25.54-58.577,15.968-87.893
		c-7.316-21.876-28.229-35.908-49.607-43.127c-29.071-9.968-63.523-15.326-89.854-17.833c-38.271-3.644-83.75-2.156-94.582-27.304
		c-4.32-13.169-0.645-29.52,11.457-37.619c32.019-21.718,97.183-18.833,130.34-2.609c15.227,7.624,24.049,23.283,27.69,39.09
		c0.676,4.644,3.799,9.491,9.175,9.288c12.676,0.254,25.351,0.068,38.023,0.084c4.354,0.305,9.121-2.152,9.971-6.61
		C631.41,315.025,614.539,281.204,584.108,265.088z"/>
</g>
</svg>
