<?xml version="1.0" encoding="utf-8"?>
<!-- Generator: Adobe Illustrator 16.0.0, SVG Export Plug-In . SVG Version: 6.00 Build 0)  -->
<!DOCTYPE svg PUBLIC "-//W3C//DTD SVG 1.1//EN" "http://www.w3.org/Graphics/SVG/1.1/DTD/svg11.dtd">
<svg version="1.1" id="Layer_1" xmlns="http://www.w3.org/2000/svg" xmlns:xlink="http://www.w3.org/1999/xlink" x="0px" y="0px"
	 width="800px" height="800px" viewBox="0 0 800 800" enable-background="new 0 0 800 800" xml:space="preserve">
<path d="M474.59,50H325.41c-54.93,0-99.45,43.11-99.45,96.3v66.66h172.13v18.52H149.45c-54.92,0-99.45,43.12-99.45,96.3v144.44
	c0,53.19,44.53,96.3,99.45,96.3h57.38V487.04c0-53.18,44.53-96.3,99.46-96.3h183.6c46.48,0,84.15-36.48,84.15-81.48V146.3
	C574.04,93.11,529.52,50,474.59,50z M302.46,168.52c-19.02,0-34.43-14.93-34.43-33.33c0-18.41,15.41-33.34,34.43-33.34
	c19.01,0,34.42,14.93,34.42,33.34C336.88,153.59,321.47,168.52,302.46,168.52z"/>
<path fill="#212121" d="M650.54,231.48h-57.37v81.48c0,53.19-44.53,96.3-99.46,96.3H310.1c-46.47,0-84.15,36.48-84.15,81.48v162.97
	c0,53.18,44.53,96.29,99.46,96.29h149.17c54.93,0,99.46-43.11,99.46-96.29v-66.67H401.91V568.52h248.63
	c54.93,0,99.46-43.109,99.46-96.3V327.78C750,274.6,705.47,231.48,650.54,231.48z M497.54,631.48c19.01,0,34.42,14.93,34.42,33.34
	c0,18.399-15.41,33.33-34.42,33.33c-19.021,0-34.43-14.931-34.43-33.33C463.11,646.41,478.52,631.48,497.54,631.48z"/>
</svg>
