<?xml version="1.0" encoding="utf-8"?>
<!-- Generator: Adobe Illustrator 16.0.0, SVG Export Plug-In . SVG Version: 6.00 Build 0)  -->
<!DOCTYPE svg PUBLIC "-//W3C//DTD SVG 1.1//EN" "http://www.w3.org/Graphics/SVG/1.1/DTD/svg11.dtd">
<svg version="1.1"
	 id="svg2" xmlns:cc="http://creativecommons.org/ns#" xmlns:sodipodi="http://sodipodi.sourceforge.net/DTD/sodipodi-0.dtd" xmlns:dc="http://purl.org/dc/elements/1.1/" xmlns:inkscape="http://www.inkscape.org/namespaces/inkscape" xmlns:svg="http://www.w3.org/2000/svg" xmlns:rdf="http://www.w3.org/1999/02/22-rdf-syntax-ns#" inkscape:version="0.91 r13725" sodipodi:docname="TheQtCompany_logo_2.svg"
	 xmlns="http://www.w3.org/2000/svg" xmlns:xlink="http://www.w3.org/1999/xlink" x="0px" y="0px" width="462px" height="339px"
	 viewBox="0 0 462 339" enable-background="new 0 0 462 339" xml:space="preserve">
<g>
	<path d="M63.5,0C42.34,21.13,21.08,42.18,0,63.39V339h397.61c21.52-21.34,42.989-42.74,64.39-64.21V0H63.5z M246.15,292.6
		c-10.131,4.67-20.23,9.37-30.371,14.021c-8.63-14.24-17.22-28.51-25.88-42.73c-11.71,1.92-23.69,1.771-35.46,0.471
		c-14.1-1.69-28.47-5.99-39.35-15.48c-8.36-7.24-13.61-17.37-17.2-27.67c-5.88-17.42-7.46-35.96-7.73-54.24
		c-0.14-19.76,1.12-39.83,7.08-58.79c4.61-14.26,12.24-28.49,25.13-36.85C137.5,61.32,156.21,58.79,174,58.95
		c16.94,0.21,34.72,3.18,48.76,13.29c10.2,7.17,16.83,18.24,21.25,29.69c7.15,18.8,9.25,39.1,9.49,59.08
		c0.03,20.12-0.88,40.681-7.54,59.851c-4.46,13.04-12.95,24.62-24.15,32.659C229.87,266.58,238.09,279.54,246.15,292.6z
		 M325.3,209.01c0.26,6.29,0.12,12.931,2.891,18.74c2.02,4.48,7.46,5.63,11.89,5.78c8.35-0.03,16.689-0.521,25.04-0.67
		c0.51,8.359,1,16.729,1.479,25.09c-16.609,2.79-34.04,6.13-50.54,0.91c-6.949-2.061-13.43-6.67-16.25-13.54
		c-5.05-11.69-5.46-24.7-5.68-37.25c-0.02-22.67,0-45.33-0.01-68c-7.39-0.02-14.78,0.01-22.17-0.02c-0.021-9.09-0.021-18.19,0-27.29
		c7.39-0.03,14.77,0.01,22.16-0.02c0.029-14.02-0.011-28.03,0.02-42.05c10.601-0.01,21.2-0.01,31.8,0
		c0.03,14.02-0.01,28.03,0.021,42.05c13.55,0.02,27.1,0,40.649,0.01c-0.229,9.1-0.479,18.2-0.739,27.3
		c-13.54,0.03-27.07-0.01-40.61,0.02C325.28,163.05,325.18,186.03,325.3,209.01z"/>
	<path id="path12" d="M160.51,87.7c10.29-1.34,21.09-0.98,30.83,2.91c7.89,3.12,14.59,9.23,18.13,16.97
		c5.43,11.73,7.51,24.68,8.56,37.47c1.14,17.02,0.98,34.2-1.37,51.12c-1.65,10.07-4,20.68-10.82,28.62
		c-6.92,7.97-17.59,11.39-27.83,12.19c-10.8,0.789-22.19,0-31.94-5.11c-5.69-3.03-10.52-7.78-13.34-13.601
		c-3.42-6.97-5.3-14.58-6.62-22.199c-3.98-24.16-4.94-49.16,0.5-73.18c2.24-9.06,5.5-18.36,12.12-25.19
		C144.49,91.85,152.51,88.83,160.51,87.7z"/>
</g>
</svg>
