<?xml version="1.0" encoding="utf-8"?>
<!-- Generator: Adobe Illustrator 16.0.0, SVG Export Plug-In . SVG Version: 6.00 Build 0)  -->
<!DOCTYPE svg PUBLIC "-//W3C//DTD SVG 1.1//EN" "http://www.w3.org/Graphics/SVG/1.1/DTD/svg11.dtd">
<svg version="1.1" id="Layer_1" xmlns="http://www.w3.org/2000/svg" xmlns:xlink="http://www.w3.org/1999/xlink" x="0px" y="0px"
	 width="800px" height="800px" viewBox="0 0 800 800" enable-background="new 0 0 800 800" xml:space="preserve">
<g>
	<path d="M469.857,399.372c0-37.405-31.273-67.732-69.857-67.732c-38.578,0-69.857,30.327-69.857,67.732
		c0,37.41,31.279,67.735,69.857,67.735C438.584,467.106,469.857,436.781,469.857,399.372z"/>
	<path d="M626.879,273.623c14.752-58.123,33.295-165.907-32.074-202.449c-65.063-36.382-149.733,33.334-194.442,75.181
		c-44.579-41.43-131.626-110.848-196.94-74.19c-65.039,36.505-44.982,142.501-29.903,200.99
		C112.849,289.862,8.846,325.848,8.846,399.372c0,73.315,103.895,112.467,164.206,129.159
		c-15.135,58.813-34.187,163.294,30.935,199.718c65.558,36.651,152.334-31.115,197.458-73.42
		c44.996,42.095,128.852,110.304,193.929,73.777c65.281-36.641,48.279-142.979,33.199-201.807
		c58.465-16.728,162.582-55.027,162.582-127.427C791.154,326.555,686.594,290.276,626.879,273.623z M619.469,495.624
		c-9.902-30.39-23.267-62.707-39.613-96.09c15.604-32.596,28.449-64.497,38.074-94.691c43.775,12.306,139.807,40.429,139.807,94.529
		C757.736,453.979,665.583,482.369,619.469,495.624z M578.627,700.563c-48.555,27.25-120.682-37.979-153.911-68.977
		c22.046-23.378,44.075-50.556,65.575-80.735c37.822-3.251,73.551-8.57,105.953-15.833
		C606.858,576.629,627.396,673.189,578.627,700.563z M220.685,700.174c-48.56-27.148-26.365-120.384-15.23-163.706
		c32.042,6.875,67.514,11.818,105.424,14.799c21.642,29.53,44.31,56.674,67.153,80.445
		C349.81,658.182,269.472,727.447,220.685,700.174z M42.263,399.372c0-54.812,95.457-82.732,140.23-95.006
		c9.791,30.872,22.632,63.153,38.129,95.796c-15.698,33.128-28.723,65.92-38.604,97.157
		C139.327,485.47,42.263,454.217,42.263,399.372z M220.166,100.208c48.759-27.364,124.414,39.279,156.78,69.276
		c-22.726,23.663-45.186,50.602-66.642,79.961c-36.792,3.307-72.013,8.616-104.392,15.73
		C193.764,218.001,171.46,127.543,220.166,100.208z M514.198,284.665c24.961,3.053,48.876,7.116,71.331,12.086
		c-6.74,20.95-15.144,42.857-25.039,65.315C546.146,335.676,530.747,309.815,514.198,284.665z M400.373,192.639
		c15.414,16.19,30.851,34.27,46.039,53.885c-30.805-1.413-61.66-1.418-92.464-0.021C369.148,227.07,384.719,209.017,400.373,192.639
		z M239.796,362.043c-9.732-22.379-18.059-44.384-24.858-65.633c22.321-4.843,46.124-8.801,70.923-11.805
		C269.266,309.701,253.894,335.551,239.796,362.043z M286.573,516.452c-25.618-2.772-49.782-6.53-72.096-11.24
		c6.907-21.622,15.417-44.101,25.357-66.962C254.125,465.018,269.732,491.118,286.573,516.452z M401.299,608.394
		c-15.839-16.571-31.639-34.901-47.069-54.615c30.979,1.179,62.018,1.181,92.996-0.159
		C431.991,573.692,416.608,592.049,401.299,608.394z M560.809,437.086c10.457,23.11,19.271,45.466,26.273,66.724
		c-22.686,5.02-47.174,9.062-72.978,12.063C530.775,490.244,546.419,463.982,560.809,437.086z M471.642,519.8
		c-47.387,3.283-95.069,3.247-142.472,0.27c-26.935-38.149-50.912-78.268-71.609-119.918
		c20.598-41.563,44.401-81.604,71.208-119.693c47.437-3.476,95.166-3.486,142.602,0.021c26.577,38.085,50.344,78.022,71.419,119.21
		C521.965,441.233,498.036,481.354,471.642,519.8z M578.113,99.245c48.771,27.275,27.063,124.143,16.407,166.266
		c-32.455-7.262-67.701-12.666-104.6-16.024c-21.497-29.677-43.77-56.664-66.129-80.02
		C456.573,138.824,529.813,72.236,578.113,99.245z"/>
</g>
</svg>
