<?xml version="1.0" encoding="utf-8"?>
<!-- Generator: Adobe Illustrator 16.0.0, SVG Export Plug-In . SVG Version: 6.00 Build 0)  -->
<!DOCTYPE svg PUBLIC "-//W3C//DTD SVG 1.1//EN" "http://www.w3.org/Graphics/SVG/1.1/DTD/svg11.dtd">
<svg version="1.1" id="Layer_1" xmlns="http://www.w3.org/2000/svg" xmlns:xlink="http://www.w3.org/1999/xlink" x="0px" y="0px"
	 width="800px" height="800px" viewBox="240 0 800 800" enable-background="new 240 0 800 800" xml:space="preserve">
<g>
	<path d="M640,0C526.76,0,424.52,47.06,351.75,122.68C282.54,194.58,240,292.32,240,400c0,220.91,179.09,400,400,400
		c107.63,0,205.33-42.5,277.22-111.66C992.9,615.57,1040,513.29,1040,400C1040,179.09,860.91,0,640,0z M540,557.5h-41.12
		l-114.26-315h41.13l87.5,250c3.02,9.06,5.15,18.4,6.37,27.88h0.88c1.31-9.729,3.66-19.28,7-28.5l56.35-158.28l32.65-91.72
		l39.62,0.62l-44,119.37L540,557.5z M793,557.5h-91.5v-315h89.62c23.28-1.25,46.24,5.85,64.76,20c15.69,12.68,24.57,31.96,24,52.12
		c0.24,16.71-4.979,33.04-14.88,46.5c-9.99,13.41-24,23.27-40,28.13v0.87c19.35,1.56,37.47,10.09,51,24
		c13.08,14.43,19.96,33.42,19.12,52.88c0.83,25.11-9.84,49.23-29,65.5c-16.76,13.99-37.28,22.49-58.8,24.57
		C802.58,557.53,797.8,557.67,793,557.5z"/>
	<path d="M823.977,362.429c-13.511,10.48-30.311,15.8-47.381,15h-37.5v-101.75l41.881-0.37c40.239,0,60.369,15.29,60.369,45.87
		C842.235,336.879,835.826,352.099,823.977,362.429z"/>
	<path d="M839.1,508.55c-14.278,10.96-32.028,16.42-50,15.38h-50V410.55l41.881,0.13c50.659,0,76,18.58,76,55.75
		C857.75,482.46,851.17,497.97,839.1,508.55z"/>
</g>
<path fill="#1C1C1C" d="M927.5,677.25c-3.36,3.76-6.78,7.46-10.28,11.09C845.33,757.5,747.63,800,640,800
	c-220.91,0-400-179.09-400-400c0-107.68,42.54-205.42,111.75-277.32c3.59-3.45,7.26-6.84,11-10.18l221.1,221.1L527.5,491.88
	c-3.34,9.22-5.69,18.771-7,28.5h-0.88c-1.22-9.479-3.351-18.82-6.37-27.88l-87.5-250h-41.13l114.26,315H540l72.12-195.63
	l89.38,89.38V557.5H793c4.8,0.17,9.58,0.03,14.32-0.43L927.5,677.25z"/>
</svg>
