<?xml version="1.0" encoding="utf-8"?>
<!-- Generator: Adobe Illustrator 16.0.0, SVG Export Plug-In . SVG Version: 6.00 Build 0)  -->
<!DOCTYPE svg PUBLIC "-//W3C//DTD SVG 1.1//EN" "http://www.w3.org/Graphics/SVG/1.1/DTD/svg11.dtd">
<svg version="1.1" id="Layer_1" xmlns="http://www.w3.org/2000/svg" xmlns:xlink="http://www.w3.org/1999/xlink" x="0px" y="0px"
	 width="200px" height="200px" viewBox="0 0 200 200" enable-background="new 0 0 200 200" xml:space="preserve">
<g>
	<circle fill="#1C3840" cx="4.516" cy="4.518" r="4.516"/>
	<circle fill="#1C3840" cx="68.172" cy="4.518" r="4.517"/>
	<circle fill="#1C3840" cx="131.828" cy="4.518" r="4.517"/>
	<path fill="#1C3840" d="M200,4.518c0,2.495-2.021,4.517-4.516,4.517c-2.498,0-4.518-2.022-4.518-4.517
		c0-2.494,2.02-4.518,4.518-4.518C197.979,0,200,2.024,200,4.518z"/>
	<path fill="#1C3840" d="M9.033,68.174c0,2.492-2.023,4.515-4.518,4.515C2.023,72.689,0,70.666,0,68.174
		c0-2.497,2.023-4.518,4.515-4.518C7.009,63.656,9.033,65.678,9.033,68.174z"/>
	<path fill="#1C3840" d="M72.689,68.174c0,2.492-2.021,4.515-4.518,4.515c-2.494,0-4.517-2.023-4.517-4.515
		c0-2.497,2.023-4.518,4.517-4.518C70.668,63.656,72.689,65.678,72.689,68.174z"/>
	<path fill="#1C3840" d="M136.346,68.174c0,2.492-2.022,4.515-4.519,4.515c-2.494,0-4.517-2.023-4.517-4.515
		c0-2.497,2.021-4.518,4.517-4.518S136.346,65.678,136.346,68.174z"/>
	<path fill="#1C3840" d="M200,68.174c0,2.494-2.021,4.515-4.516,4.515c-2.498,0-4.518-2.021-4.518-4.515
		c0-2.497,2.02-4.518,4.518-4.518C197.979,63.656,200,65.678,200,68.174z"/>
	<circle fill="#1C3840" cx="4.516" cy="131.828" r="4.516"/>
	<circle fill="#1C3840" cx="68.172" cy="131.828" r="4.518"/>
	<circle fill="#1C3840" cx="131.828" cy="131.828" r="4.518"/>
	<path fill="#1C3840" d="M200,131.828c0,2.495-2.021,4.518-4.516,4.518c-2.498,0-4.518-2.021-4.518-4.518
		c0-2.494,2.02-4.516,4.518-4.516C197.979,127.313,200,129.334,200,131.828z"/>
	<circle fill="#1C3840" cx="4.516" cy="195.485" r="4.516"/>
	<circle fill="#1C3840" cx="68.172" cy="195.485" r="4.517"/>
	<circle fill="#1C3840" cx="131.828" cy="195.485" r="4.517"/>
	<path fill="#1C3840" d="M200,195.484c0,2.494-2.021,4.516-4.516,4.516c-2.498,0-4.518-2.021-4.518-4.516s2.02-4.518,4.518-4.518
		C197.979,190.968,200,192.99,200,195.484z"/>
</g>
</svg>
