<?xml version="1.0" encoding="utf-8"?>
<!-- Generator: Adobe Illustrator 16.0.0, SVG Export Plug-In . SVG Version: 6.00 Build 0)  -->
<!DOCTYPE svg PUBLIC "-//W3C//DTD SVG 1.1//EN" "http://www.w3.org/Graphics/SVG/1.1/DTD/svg11.dtd">
<svg version="1.1" id="Layer_1" xmlns="http://www.w3.org/2000/svg" xmlns:xlink="http://www.w3.org/1999/xlink" x="0px" y="0px"
	 width="2000px" height="200px" viewBox="0 0 2000 200" enable-background="new 0 0 2000 200" xml:space="preserve">
<path fill="none" stroke="#1C3840" stroke-width="14" stroke-miterlimit="10" d="M1985.003,105.067
	c0.07,47.813-44.159,86.475-98.982,86.382l1.511,0.027c-54.822-0.095-99.251-38.853-99.338-86.665
	c-0.088-47.82-44.519-86.593-99.34-86.638l1.526-0.004c-54.823-0.06-98.967,19.849-98.881,67.679
	c0.117,47.804-44.307,105.217-99.083,105.157l1.508-0.004c-54.82-0.077-99.251-38.818-99.352-86.655
	c-0.071-47.83-44.531-86.579-99.352-86.64l1.552-0.003c-54.821-0.069-99.069,38.576-99.011,86.429
	c0.087,47.797-44.159,86.458-98.982,86.398l1.556-0.005c-54.838-0.042-99.252-38.816-99.369-86.639
	c-0.086-47.822-44.529-86.595-99.337-86.657l1.538,0.005c-54.806-0.069-99.083,38.584-98.996,86.438
	c0.088,47.782-44.175,86.442-98.996,86.398l1.51-0.006c-54.793-0.061-99.208-38.832-99.294-86.662
	c-0.086-47.806-44.532-86.57-99.338-86.624l1.51,0.005c-54.806-0.079-99.084,38.567-98.967,86.405
	c0.057,47.805-44.204,86.482-99.027,86.403l1.51-0.003c-54.776-0.062-99.207-38.8-99.308-86.641
	c-0.102-47.836-44.546-86.585-99.352-86.654l1.509,0.004c-54.793-0.044-99.054,38.584-98.982,86.42"/>
<path fill="#1C3840" d="M23.984,102.344c0.088,3.756-3.046,7.022-6.902,7.114c-3.855,0.09-7.054-2.882-7.143-6.638
	c-0.088-3.754,2.966-6.874,6.822-6.964C20.617,95.765,23.896,98.588,23.984,102.344z"/>
<path fill="#1C3840" d="M1991.991,105.73c-0.119,3.755-3.429,6.844-7.283,6.724c-3.854-0.122-6.886-3.266-6.768-7.021
	c0.119-3.752,3.341-6.699,7.195-6.579C1988.99,98.976,1992.108,101.975,1991.991,105.73z"/>
</svg>
