<?xml version="1.0" encoding="utf-8"?>
<!-- Generator: Adobe Illustrator 16.0.0, SVG Export Plug-In . SVG Version: 6.00 Build 0)  -->
<!DOCTYPE svg PUBLIC "-//W3C//DTD SVG 1.1//EN" "http://www.w3.org/Graphics/SVG/1.1/DTD/svg11.dtd">
<svg version="1.1" id="Layer_1" xmlns="http://www.w3.org/2000/svg" xmlns:xlink="http://www.w3.org/1999/xlink" x="0px" y="0px"
	 width="810px" height="1000px" viewBox="0 0 810 1000" enable-background="new 0 0 810 1000" xml:space="preserve">
<path fill="#20BDE8" d="M810,596.853c0,80.561-23.489,155.604-63.945,218.624c-71.616,111.605-196.491,185.498-338.541,185.498
	c-172.208,0-319.125-108.557-376.636-261.227C14.147,695.309,5,647.163,5,596.853C5,406.794,135.689,247.368,311.761,204.23
	c30.688-7.496,62.762-11.496,95.753-11.496c89.288,0,171.794,29.213,238.569,78.632C745.492,344.932,810,463.324,810,596.853z"/>
<path fill="#1C3840" d="M746.055,815.477c-71.616,111.605-196.491,185.498-338.541,185.498
	c-172.208,0-319.125-108.557-376.636-261.227c7.112-26.873,22.632-63.967,56.064-88.083c57.54-41.479,172.62-94.808,182.948-102.216
	c10.327-7.406,22.13-35.552,38.359-51.847s23.606-7.408,23.606-7.408s2.951-17.775,8.852-28.146
	c5.902-10.369,11.567-0.769,12.394-19.523c0.796-18.754-3.246-44.442-6.906-51.761c-3.658-7.348-5.282-14.28-12.983-8.563
	c-7.731,5.69-12.6,6.103-22.75-22.427c-10.15-28.531-19.092-48.915-14.607-63.996c4.457-15.11,6.079-17.954,14.194-17.539
	c8.145,0.415,15.433,6.519,14.224-7.348c-1.004-11.644-9.237-39.997-12.512-66.662c-0.648-5.067-1.093-10.073-1.298-14.874
	c-1.21-30.162,9.737-95.401,31.662-111.697c21.954-16.324,25.996-63.372,105.167-73.386C526.49-5.77,592.677,33.219,610.113,47.085
	c17.472,13.836,29.241,57.478,28.829,83.551c-0.386,26.102,1.24,97.859,0.03,109.265c-1.24,11.408-1.919,22.429,0.443,23.644
	c1.386,0.712,4.569,2.222,6.667,7.822c1.535,4.028,2.48,10.161,1.798,19.671c-1.621,22.667-8.938,48.353-9.324,57.714
	c-0.412,9.394-1.619,14.281,0.386,19.999c2.037,5.689,5.28,8.947,1.24,14.251c-4.075,5.303-3.245,1.245-7.32,17.125
	c-4.071,15.912-7.699,30.576-24.372,55.849c-16.645,25.303-23.96,27.732-29.625,50.574c-5.698,22.813-6.106,33.834-6.106,33.834
	s6.903,0.415,8.939,18.339c2.034,17.955,3.659,40.768,3.659,40.768s53.997,24.859,95.429,65.625
	c41.396,40.795,51.163,24.89,57.657,77.061C740.537,758.945,743.28,786.175,746.055,815.477z"/>
</svg>
