<?xml version="1.0" encoding="utf-8"?>
<!-- Generator: Adobe Illustrator 16.0.0, SVG Export Plug-In . SVG Version: 6.00 Build 0)  -->
<!DOCTYPE svg PUBLIC "-//W3C//DTD SVG 1.1//EN" "http://www.w3.org/Graphics/SVG/1.1/DTD/svg11.dtd">
<svg version="1.1" id="Layer_1" xmlns="http://www.w3.org/2000/svg" xmlns:xlink="http://www.w3.org/1999/xlink" x="0px" y="0px"
	 width="804px" height="1000px" viewBox="0 0 804 1000" enable-background="new 0 0 804 1000" xml:space="preserve">
<path fill="#20BDE8" d="M805.75,597.94c0,79.579-23.1,153.77-62.96,216.189c-0.28,0.44-0.56,0.88-0.84,1.32
	c-1.391,2.16-2.8,4.3-4.24,6.43c-1.28,1.93-2.59,3.851-3.92,5.75c-6.37,9.14-13.1,18-20.19,26.561
	c-6.64,8.02-13.58,15.779-20.81,23.27c-2.021,2.1-4.07,4.18-6.15,6.24c-0.64,0.64-1.29,1.28-1.939,1.899
	c-4.86,4.761-9.84,9.391-14.94,13.881c-6.29,5.579-12.76,10.949-19.399,16.109c-18.28,14.23-37.811,26.9-58.42,37.83
	c-4.12,2.19-8.28,4.311-12.48,6.35c-0.14,0.07-0.27,0.131-0.41,0.2c-14.81,7.19-30.149,13.49-45.91,18.84
	c-1.63,0.551-3.27,1.101-4.909,1.631C489.15,993.14,447.45,1000,404.16,1000c-36.59,0-72.02-4.9-105.7-14.07
	c-1.84-0.5-3.67-1.01-5.5-1.54C171.99,949.57,74.44,859.37,29.44,742.95c-0.37-0.95-0.73-1.9-1.09-2.851
	c-0.08-0.21-0.16-0.43-0.24-0.64C11.57,695.43,2.53,647.75,2.53,597.94c0-179.61,117.64-331.72,280-383.3
	c8.57-2.73,17.28-5.18,26.09-7.33c30.62-7.46,62.62-11.44,95.54-11.44c74.67,0,144.58,20.42,204.479,55.97
	c11.57,6.87,22.771,14.31,33.561,22.27C741.39,347.3,805.75,465.08,805.75,597.94z"/>
<path opacity="0.2" fill="#424242" d="M713.6,854.19c-6.64,8.02-13.58,15.779-20.81,23.27c-2.021,2.1-4.07,4.18-6.15,6.24
	c-0.64,0.64-1.29,1.28-1.939,1.899c-4.86,4.761-9.84,9.391-14.94,13.881c-6.29,5.579-12.76,10.949-19.399,16.109
	c-18.28,14.23-37.811,26.9-58.42,37.83c-4.12,2.19-8.28,4.311-12.48,6.35c-0.14,0.07-0.27,0.131-0.41,0.2
	c-14.81,7.19-30.149,13.49-45.91,18.84c-1.63,0.551-3.27,1.101-4.909,1.631C489.15,993.14,447.45,1000,404.16,1000
	c-36.59,0-72.02-4.9-105.7-14.07c-1.84-0.5-3.67-1.01-5.5-1.54C171.99,949.57,74.44,859.37,29.44,742.95
	c-0.37-0.95-0.73-1.9-1.09-2.851c-0.08-0.21-0.16-0.43-0.24-0.64c5.84-8.14,11.15-14.85,16.08-20.51c4.04-3.86,8.4-7.51,13.13-10.91
	c53.14-38.17,155.48-86.42,178.62-99.25c0.01,0,0.01,0,0.01,0c1.87-1.04,4.65-1.18,5.42-1.73c1.65-1.18,1.89-3.54,3.62-5.64
	c9.13-11.02,19.62-32.96,33.23-46.57c16.2-16.199,23.56-7.359,23.56-7.359s0.86-3.07,2.33-7.4c1.83-5.39,4.62-12.729,7.89-18.45
	c5.89-10.31,10.16-2.909,10.99-21.55c0.79-18.65-3.24-44.19-6.9-51.47c-3.65-7.3-5.27-14.19-12.96-8.51
	c-7.71,5.66-12.57,6.07-22.7-22.3c-10.14-28.37-19.06-48.63-14.58-63.63c4.44-15.02,6.06-17.85,14.16-17.44
	c8.13,0.41,15.41,6.48,14.2-7.31c-1-11.57-9.22-39.77-12.49-66.28c-0.64-5.03-1.09-10.01-1.29-14.79c-0.36-8.9,0.35-20.86,2.1-33.72
	c4.14-30.47,14.11-65.94,29.5-77.33c21.91-16.23,25.95-63.02,104.97-72.97c79.05-9.99,145.11,28.78,162.52,42.56
	c17.44,13.76,29.19,57.15,28.771,83.08c-0.2,13.37,0.14,38.8,0.35,61.86c0.19,21.69,0.271,41.28-0.319,46.78
	c-1.23,11.34-1.91,22.3,0.439,23.51c1.391,0.71,4.57,2.21,6.66,7.78c1.53,4,2.47,10.1,1.8,19.56c-1.62,22.53-8.93,48.07-9.31,57.38
	c-0.41,9.34-1.62,14.2,0.38,19.89c2.03,5.65,5.27,8.89,1.24,14.17c-4.07,5.27-3.24,1.23-7.311,17.02
	c-4.06,15.82-7.68,30.4-24.319,55.53c-16.61,25.16-23.92,27.58-29.57,50.29c-5.69,22.68-6.1,33.64-6.1,33.64s6.89,0.41,8.92,18.24
	c2.04,17.851,3.659,40.53,3.659,40.53s53.891,24.72,95.24,65.25c41.33,40.56,51.07,24.75,57.561,76.62
	C709.29,811.46,711.4,831.63,713.6,854.19z"/>
<path fill="#CCA681" d="M741.93,815.94C702.08,877.81,645.71,928.02,579.05,960.34c-52.91,25.65-112.29,40.04-175.03,40.04
	c-170.74,0-316.569-106.5-374.77-256.689c4.43-20.811,10.59-37.921,23.47-56.221c6.68-9.5,12.67-17.149,18.19-23.489
	c4.04-3.86,8.4-7.511,13.13-10.91c53.14-38.17,155.48-86.42,178.62-99.25c0.01,0,0.01,0,0.01,0c1.87-1.04,4.65-1.181,5.42-1.73
	c1.65-1.18,1.89-3.54,3.62-5.64c9.13-11.021,19.62-32.96,33.23-46.57c16.2-16.2,23.56-7.36,23.56-7.36s0.86-3.07,2.33-7.4
	c1.83-5.39,4.62-12.73,7.89-18.45c5.89-10.31,10.16-2.91,10.99-21.55c0.79-18.65-3.24-44.19-6.9-51.47
	c-3.65-7.3-5.27-14.19-12.96-8.51c-7.71,5.66-12.57,6.07-22.7-22.3c-10.14-28.37-19.06-48.63-14.58-63.63
	c4.44-15.02,6.06-17.85,14.16-17.44c8.13,0.41,15.41,6.48,14.2-7.31c-1-11.57-9.22-39.77-12.49-66.28
	c-0.64-5.03-1.09-10.01-1.29-14.79c-0.42-10.44,0.63-25.09,3.09-40.46c4.63-28.78,14.24-60.03,28.51-70.59
	c3.14-2.33,5.92-5.29,8.61-8.68C356,64.21,358.72,54.62,373,43.67c20-15.34,19.33-23.34,78.67-32c25.43-3.72,52.34-1.55,76.67,3.92
	c34.63,9.21,61.24,24.36,74.021,33.44c9.069,8.57,16.21,18.61,21.5,30.21c7.21,18.03,11.399,40.09,11.149,55.77
	c-0.08,5.67-0.069,13.52-0.01,22.44c-0.85,32.33,0.02,62.23,0.45,74.12v0.08c0,0.84-0.01,1.64-0.03,2.42
	c-0.07,4.43-0.189,7.77-0.38,9.58c-1.23,11.34-1.91,22.3,0.44,23.51c1.39,0.71,4.569,2.21,6.659,7.78c1.53,4,2.471,10.1,1.801,19.56
	c-1.62,22.53-8.931,48.07-9.311,57.38c-0.41,9.34-1.62,14.2,0.38,19.89c2.03,5.65,5.271,8.89,1.24,14.17
	c-4.07,5.27-3.24,1.23-7.31,17.02c-4.061,15.82-7.681,30.4-24.32,55.53c-16.61,25.16-23.92,27.58-29.57,50.29
	c-5.689,22.68-6.1,33.64-6.1,33.64s6.89,0.41,8.92,18.24c2.04,17.85,3.66,40.53,3.66,40.53s53.89,24.72,95.239,65.25
	c41.33,40.56,51.07,24.75,57.561,76.619C736.42,759.73,739.16,786.81,741.93,815.94z"/>
<path fill="#9E816A" d="M347.833,491c0,0,0.542-54.125,0.352-64.076c-0.182-9.516-4.5-34.101,2.315-12.424
	c6.739,21.438,67,89,123,95s65.166,0,73.333-2s34.829-19.5,39.498-24.25S556,518,550.5,527.5s-66,13.5-66,13.5H426l-65-20.5
	L347.833,491z"/>
<path d="M635.299,239.185c-0.04-0.44-0.241-3.645-0.361-4.935c-1-10.8-4.878-49.19-17.938-71.92c-15.37-26.72-16.67-29.74-60-36
	c-36.55-5.28-101.71-5.54-126.38,0.06c-24.67,5.59-38,9.8-48.95,26.47c-10.96,16.66-24,36.81-24,36.81l-47.43-36.74l-4.45-3.45
	c0,0,4.54-51.15,27.21-64.48c6.48-3.81,10.89-7.56,14.36-11.34C356,64.21,358.72,54.62,373,43.67c20-15.34,19.33-23.34,78.67-32
	c25.43-3.72,52.34-1.55,76.67,3.92c32.42,7.29,60.28,20.46,73.99,33.41c0.01,0.01,0.02,0.02,0.03,0.03
	c9.069,8.57,16.21,18.61,21.5,30.21c8.68,19.08,12.359,42.36,11.38,70.24c-0.09,2.67-0.17,5.33-0.24,7.97
	c-0.85,32.33,0.02,62.23,0.45,74.12v0.08C635.55,234.28,635.278,238.515,635.299,239.185z"/>
<linearGradient id="SVGID_1_" gradientUnits="userSpaceOnUse" x1="237.9868" y1="784.332" x2="237.9868" y2="984.1455" gradientTransform="matrix(1 0 0 -1 104 1097)">
	<stop  offset="0" style="stop-color:#CCA681"/>
	<stop  offset="0.086" style="stop-color:#CCA681"/>
	<stop  offset="0.6615" style="stop-color:#13100B"/>
	<stop  offset="0.9516" style="stop-color:#000000"/>
</linearGradient>
<path fill="url(#SVGID_1_)" d="M334,312.667c0,0-4-55.333,11.667-81s28.666-53.667,32-69.333s3-36-12.667-43
	s-41.667-8.667-49.667-3.333s-15.667,54.667-6.667,100.667s13.667,67,18,79S334,312.667,334,312.667z"/>
<path fill="#3372A0" d="M579.46,960.07C526.49,985.84,467,1000.3,404.16,1000.3c-157.68,0-294.1-90.939-359.85-223.3
	c-2.43-4.89-4.77-9.84-7-14.85c-2.78-6.221-5.4-12.521-7.87-18.9c0.03-0.13,0.06-0.27,0.09-0.4c4.43-20.81,10.59-37.92,23.47-56.22
	c6.68-9.5,12.67-17.149,18.19-23.49c15.38-17.699,27.04-25.12,39.56-33.59c17-11.5,28.75-18.25,28.75-18.25s47-24.25,59.25-32
	s37.5-20,54-23.75c4.64-1.05,7.84-1.81,10.19-2.569c0.01,0,0.01,0,0.01,0c4.84-1.57,6.11-3.16,9.04-7.37
	c0.72-1.021,1.53-2.19,2.51-3.561c7-9.75,23-38.5,25-43.5s4.61-12.79,17-13.25c6.04-0.22,11.05-0.65,14.61-1.02
	c3.75-0.39,5.89-0.73,5.89-0.73l1.5,8c0,0-15.17,3.97-15.17,8.75c0,4.78,32.67,45.75,40.92,54.75s34,47.22,46.75,65.11
	c12.75,17.89,70.5,106.89,78.13,127.89c7.62,21,23.351,42.29,36.37,73s41,90.75,46,107.25c2.37,7.811,5.35,20.26,7.83,31.2
	C579.37,959.69,579.42,959.88,579.46,960.07z"/>
<path fill="#1C5EA5" d="M742.79,814.13c-0.28,0.44-0.56,0.88-0.84,1.32c-15.932,24.75-34.5,47.63-55.312,68.25
	c-3.93-21.681-9.13-46.062-14.14-56.7c-10-21.25-42.05-92-46.53-101c-4.47-9-29.97-57.75-34.22-76s-9.22-50.3-9.22-50.3
	s12.97,4.55,37.97,21.55s44,28.25,55.75,41S698.77,682,706.26,689s17.24,12.25,20.99,20.25S735.75,739,738,762.5
	C739.94,782.75,740.95,797.98,742.79,814.13z"/>
<g>
	<path fill="#1A4566" d="M533.14,978.81c-1.63,0.552-3.27,1.102-4.908,1.632l-11.74-40.78c-16.7-38.23-55.312-113.58-76.83-152.75
		c-21.53-39.16-51.23-89.642-63.11-103c-11.87-13.37-26.35-36.01-23.01-44.54c3.34-8.54,13.73-15.63-6.31-19.51
		c-20.05-3.88-22.64-2.021-30.07-12.79c-7.42-10.761-37.49-50.45-42.31-55.28c-4.83-4.82-3.99-4.79-3.99-4.79h1.39
		c0,0,28.95,19.64,37.49,35.97s10.02,24.86,19.67,27.46c9.65,2.591,24.13,4.82,30.81,7.78c6.68,2.97,15.59,3.74,9.28,11.891
		c-6.31,8.149-15.96,12.229-3.71,25.971c12.25,13.729,51.96,71.66,79.8,127.33s61.25,115.06,79.07,167.77
		C528.11,961.37,530.89,970.58,533.14,978.81z"/>
	<path fill="#1A4566" d="M298.46,985.93c-1.84-0.5-3.67-1.01-5.5-1.54c-0.99-9.778-2.31-19.438-4.63-31.72
		c-5.66-30-9.72-66-17.53-81.67c-7.8-15.67-22.13-52-7.8-27.33c14.33,24.66,15-12-3.33-58.67c-18.34-46.67-36.34-99-59.67-119
		s-70-40.67-78.33-39c-8.34,1.67-8.34,1.67-8.34,1.67s1.84-2.79,6.63-3.66c4.78-0.87,6.27-1.148,8.9-0.83
		c6.93-6.438,26.75-22.76,62.47-36.85c44.34-17.48,83.34-27.72,85.57-28.3c-2.71,0.97-60.84,21.6-86.23,33.97
		c-26,12.67-57.34,32.33-57.34,32.33s49.67,6.34,83,55c33.34,48.67,55,95.67,65,147c10,51.34,11.34,93.34,13,121.34
		C294.78,956.23,296.37,969.94,298.46,985.93z"/>
	<path fill="#1A4566" d="M692.79,877.46c-2.021,2.1-4.07,4.18-6.15,6.24c-0.64,0.64-1.29,1.28-1.938,1.898
		c-4.86,4.762-9.84,9.392-14.94,13.882L656.11,865.6L628.33,779l-19.86-62.12l-25.08-62.68l-3.658-54.5l4.05,2.22
		c0,0,3.09,2.13,6.56,20.45s12.34,42.24,20.062,58.25c7.71,16.01,26.81,55.55,37.42,76.77c10.6,21.222,26.608,51.892,32.01,69.44
		C683.55,838.9,688.53,859.34,692.79,877.46z"/>
	<path fill="#1A4566" d="M56.67,723c-1.13,6.09-6.23,27.38-12.36,53.7c-2.43-4.892-4.77-9.84-7-14.852
		C48.83,732.82,58.94,710.74,56.67,723z"/>
	<path fill="#1A4566" d="M737.5,819.5c0.07,0.78,0.15,1.58,0.21,2.38c-1.28,1.93-2.59,3.852-3.92,5.75
		c-2.43-21.41-4.79-27.21-4.79-27.21s0.5-90.92,3-60.42S734.5,787.5,737.5,819.5z"/>
	<path fill="#1A4566" d="M750.7,1002.31c-1.84,16.82-4.771,30.262-5.16,32.001C745.82,1032.46,748.26,1017.2,750.7,1002.31z"/>
	<path fill="#1A4566" d="M723.365,708.886c0,0,4.479,8.954,5.635,20.672c1.155,11.719,1.813,23.712,1.813,23.712
		s0.934-21.278-1.813-31.464C726.254,711.621,723.365,708.886,723.365,708.886z"/>
</g>
<path fill="#FFFFFF" d="M684.7,885.6c-30.71,30.04-66.2,55.181-105.24,74.17c-0.14,0.07-0.27,0.131-0.41,0.2
	c-1.359-4.479-3.12-10.38-5.37-18.14c-8.87-30.64-28.25-77.01-41.949-104.43c-13.711-27.41-47.62-99.58-64.961-130.221
	C449.44,676.54,404.6,614.45,392.91,596.3c-0.99-1.53-2.3-3.45-3.89-5.689c-1.5-2.12-3.25-4.53-5.19-7.16
	C363.65,556.02,323,504.78,323,504.78v-1.561c0,0,7.02-29.08,16.29-39.56s9.03-8.47,9.03-8.47s-3.22,14.82,6.45,23.94
	c9.68,9.12,83.86,51.86,104.02,61.54c20.16,9.67,59.67,35.88,66.12,44.75s5.649,12.521,5.649,12.521l0.03,4.01
	c0,0,5.61-4.84,12.87-6.86c7.26-2.01,22.17-18.14,22.98-27.81c0.81-9.681,2.79-25.7,2.79-25.7s4.869-0.51,7.689,11.58
	c2.83,12.1,5.65,38.3,5.65,48.79c0,10.479-2.42,26.609,3.63,46.77c6.04,20.16,22.979,57.65,29.83,72.971
	c6.85,15.319,5.239,15.329,12.1,22.579c6.851,7.261,9.67,20.16,8.87,29.841c-0.81,9.67,7.66,24.189,14.92,31.439
	c7.25,7.26,11.28,22.181,12.49,29.84c1.21,7.66,13.71,30.641,18.14,41.12C683.22,878.09,683.95,881.27,684.7,885.6z"/>
<g>
	<path fill="#CCCCCC" d="M495.75,649.5c0,0,27.5-55.75,28.25-58.75s6.5,5.25,8.5,8.5s33.75,10.25,39.75,9.75s9.25,0.605,9.25,10.803
		c0,10.198,10.75,49.947,17,60.197s13.5,87.25,13.25,100.25s-43.25-18.5-43.25-18.5l-28-17C540.5,744.75,500.5,692,495.75,649.5z"/>
	<path fill="#CCCCCC" d="M636,772.334c0,0-12.101,10.988-9.717,59.494s-0.312,57.173-0.312,57.173s6.027-61.333,10.027-78
		c0,0,3.949-13.453,5.81-11.825c1.861,1.628,10.114,10.116,14.649,22.091c4.535,11.976,8.139,17.323,8.139,17.323l-27.671-67.549
		L636,772.334z"/>
	<path fill="#CCCCCC" d="M500.78,639.27c0,0-0.28,13.471-5.03,15.98c-4.75,2.5-10.5,9.24-22.25,0
		c-9.47-7.46-63.78-48.87-84.48-64.64c-1.5-2.12-3.25-4.53-5.19-7.16c18.55,15.72,90.89,76.12,102.42,71.55
		C499.5,649.75,500.78,639.27,500.78,639.27z"/>
	<path fill="#CCCCCC" d="M479.75,630.099c0,0-3.738,6.102-0.983,8.659c2.755,2.559,6.495,2.166,7.872-1.771
		c1.377-3.938,0-5.904,0-5.904s3.148,3.738,2.361,6.494s-8.05,10.632-13.186,0.591c-2.073-4.054,1.573-8.069,2.755-8.069"/>
	<path fill="#CCCCCC" d="M546.833,605.333c0,0,8.333-9.834,12.5-8.5s12.245,8.266,15.956,14.3s0.374,16.7,0.374,16.7
		L546.833,605.333z"/>
	<path fill="#CCCCCC" d="M646.885,800.421c0,0,7.284,6.749,9.572,11.253s6.61,13.365,7.419,20.778
		c0.81,7.413,4.251,13.445,4.251,13.445l-8.701-17.365L646.885,800.421z"/>
</g>
<g>
	<path fill="#333333" d="M650.36,915.59c-18.28,14.23-37.812,26.9-58.42,37.83c-0.812-8.71-1.771-18.609-2.69-27.17
		c-2.25-21-19.25-94.25-24.5-112.5S547.75,751,544,726s1-63.25,1-63.25l15.5-16.25c0,0,8,11.75,11.25,18.5s19.5,58,25.5,72
		S620.5,810.75,629,837.25C633.86,852.42,642.91,885.44,650.36,915.59z"/>
	<path fill="#3D3D3D" d="M520,604.25c0,0-11.75,21.5-12,24.25s12,11.75,21.5,22.75S540.75,669,547,668.5s23.75,1.25,23.75-10.5
		s3.25-35.25,4.75-42.75s-7.75-13.25-11-15s-8.5,1.25-13,1.25S527.5,600,520,604.25z"/>
</g>
</svg>
